<svg width="320" height="173" viewBox="0 0 320 173" fill="none" xmlns="http://www.w3.org/2000/svg">
<rect x="1" y="1" width="318" height="118" rx="15" fill="white"/>
<path d="M24.2852 21.9375V39H22.0586V21.9375H24.2852ZM29.7695 21.9375V23.7891H16.5859V21.9375H29.7695ZM34.1406 21V39H31.9727V21H34.1406ZM33.625 32.1797L32.7227 32.1445C32.7305 31.2773 32.8594 30.4766 33.1094 29.7422C33.3594 29 33.7109 28.3555 34.1641 27.8086C34.6172 27.2617 35.1562 26.8398 35.7812 26.543C36.4141 26.2383 37.1133 26.0859 37.8789 26.0859C38.5039 26.0859 39.0664 26.1719 39.5664 26.3438C40.0664 26.5078 40.4922 26.7734 40.8438 27.1406C41.2031 27.5078 41.4766 27.9844 41.6641 28.5703C41.8516 29.1484 41.9453 29.8555 41.9453 30.6914V39H39.7656V30.668C39.7656 30.0039 39.668 29.4727 39.4727 29.0742C39.2773 28.668 38.9922 28.375 38.6172 28.1953C38.2422 28.0078 37.7812 27.9141 37.2344 27.9141C36.6953 27.9141 36.2031 28.0273 35.7578 28.2539C35.3203 28.4805 34.9414 28.793 34.6211 29.1914C34.3086 29.5898 34.0625 30.0469 33.8828 30.5625C33.7109 31.0703 33.625 31.6094 33.625 32.1797ZM47.5469 26.3203V39H45.3672V26.3203H47.5469ZM45.2031 22.957C45.2031 22.6055 45.3086 22.3086 45.5195 22.0664C45.7383 21.8242 46.0586 21.7031 46.4805 21.7031C46.8945 21.7031 47.2109 21.8242 47.4297 22.0664C47.6562 22.3086 47.7695 22.6055 47.7695 22.957C47.7695 23.293 47.6562 23.582 47.4297 23.8242C47.2109 24.0586 46.8945 24.1758 46.4805 24.1758C46.0586 24.1758 45.7383 24.0586 45.5195 23.8242C45.3086 23.582 45.2031 23.293 45.2031 22.957ZM53.1953 29.0273V39H51.0273V26.3203H53.0781L53.1953 29.0273ZM52.6797 32.1797L51.7773 32.1445C51.7852 31.2773 51.9141 30.4766 52.1641 29.7422C52.4141 29 52.7656 28.3555 53.2188 27.8086C53.6719 27.2617 54.2109 26.8398 54.8359 26.543C55.4688 26.2383 56.168 26.0859 56.9336 26.0859C57.5586 26.0859 58.1211 26.1719 58.6211 26.3438C59.1211 26.5078 59.5469 26.7734 59.8984 27.1406C60.2578 27.5078 60.5312 27.9844 60.7188 28.5703C60.9062 29.1484 61 29.8555 61 30.6914V39H58.8203V30.668C58.8203 30.0039 58.7227 29.4727 58.5273 29.0742C58.332 28.668 58.0469 28.375 57.6719 28.1953C57.2969 28.0078 56.8359 27.9141 56.2891 27.9141C55.75 27.9141 55.2578 28.0273 54.8125 28.2539C54.375 28.4805 53.9961 28.793 53.6758 29.1914C53.3633 29.5898 53.1172 30.0469 52.9375 30.5625C52.7656 31.0703 52.6797 31.6094 52.6797 32.1797ZM72.5078 26.3203H74.4766V38.7305C74.4766 39.8477 74.25 40.8008 73.7969 41.5898C73.3438 42.3789 72.7109 42.9766 71.8984 43.3828C71.0938 43.7969 70.1641 44.0039 69.1094 44.0039C68.6719 44.0039 68.1562 43.9336 67.5625 43.793C66.9766 43.6602 66.3984 43.4297 65.8281 43.1016C65.2656 42.7812 64.793 42.3477 64.4102 41.8008L65.5469 40.5117C66.0781 41.1523 66.6328 41.5977 67.2109 41.8477C67.7969 42.0977 68.375 42.2227 68.9453 42.2227C69.6328 42.2227 70.2266 42.0938 70.7266 41.8359C71.2266 41.5781 71.6133 41.1953 71.8867 40.6875C72.168 40.1875 72.3086 39.5703 72.3086 38.8359V29.1094L72.5078 26.3203ZM63.7773 32.8008V32.5547C63.7773 31.5859 63.8906 30.707 64.1172 29.918C64.3516 29.1211 64.6836 28.4375 65.1133 27.8672C65.5508 27.2969 66.0781 26.8594 66.6953 26.5547C67.3125 26.2422 68.0078 26.0859 68.7812 26.0859C69.5781 26.0859 70.2734 26.2266 70.8672 26.5078C71.4688 26.7812 71.9766 27.1836 72.3906 27.7148C72.8125 28.2383 73.1445 28.8711 73.3867 29.6133C73.6289 30.3555 73.7969 31.1953 73.8906 32.1328V33.2109C73.8047 34.1406 73.6367 34.9766 73.3867 35.7188C73.1445 36.4609 72.8125 37.0938 72.3906 37.6172C71.9766 38.1406 71.4688 38.543 70.8672 38.8242C70.2656 39.0977 69.5625 39.2344 68.7578 39.2344C68 39.2344 67.3125 39.0742 66.6953 38.7539C66.0859 38.4336 65.5625 37.9844 65.125 37.4062C64.6875 36.8281 64.3516 36.1484 64.1172 35.3672C63.8906 34.5781 63.7773 33.7227 63.7773 32.8008ZM65.9453 32.5547V32.8008C65.9453 33.4336 66.0078 34.0273 66.1328 34.582C66.2656 35.1367 66.4648 35.625 66.7305 36.0469C67.0039 36.4688 67.3516 36.8008 67.7734 37.043C68.1953 37.2773 68.6992 37.3945 69.2852 37.3945C70.0039 37.3945 70.5977 37.2422 71.0664 36.9375C71.5352 36.6328 71.9062 36.2305 72.1797 35.7305C72.4609 35.2305 72.6797 34.6875 72.8359 34.1016V31.2773C72.75 30.8477 72.6172 30.4336 72.4375 30.0352C72.2656 29.6289 72.0391 29.2695 71.7578 28.957C71.4844 28.6367 71.1445 28.3828 70.7383 28.1953C70.332 28.0078 69.8555 27.9141 69.3086 27.9141C68.7148 27.9141 68.2031 28.0391 67.7734 28.2891C67.3516 28.5312 67.0039 28.8672 66.7305 29.2969C66.4648 29.7188 66.2656 30.2109 66.1328 30.7734C66.0078 31.3281 65.9453 31.9219 65.9453 32.5547ZM85.1523 35.6367C85.1523 35.3242 85.082 35.0352 84.9414 34.7695C84.8086 34.4961 84.5312 34.25 84.1094 34.0312C83.6953 33.8047 83.0703 33.6094 82.2344 33.4453C81.5312 33.2969 80.8945 33.1211 80.3242 32.918C79.7617 32.7148 79.2812 32.4688 78.8828 32.1797C78.4922 31.8906 78.1914 31.5508 77.9805 31.1602C77.7695 30.7695 77.6641 30.3125 77.6641 29.7891C77.6641 29.2891 77.7734 28.8164 77.9922 28.3711C78.2188 27.9258 78.5352 27.5312 78.9414 27.1875C79.3555 26.8438 79.8516 26.5742 80.4297 26.3789C81.0078 26.1836 81.6523 26.0859 82.3633 26.0859C83.3789 26.0859 84.2461 26.2656 84.9648 26.625C85.6836 26.9844 86.2344 27.4648 86.6172 28.0664C87 28.6602 87.1914 29.3203 87.1914 30.0469H85.0234C85.0234 29.6953 84.918 29.3555 84.707 29.0273C84.5039 28.6914 84.2031 28.4141 83.8047 28.1953C83.4141 27.9766 82.9336 27.8672 82.3633 27.8672C81.7617 27.8672 81.2734 27.9609 80.8984 28.1484C80.5312 28.3281 80.2617 28.5586 80.0898 28.8398C79.9258 29.1211 79.8438 29.418 79.8438 29.7305C79.8438 29.9648 79.8828 30.1758 79.9609 30.3633C80.0469 30.543 80.1953 30.7109 80.4062 30.8672C80.6172 31.0156 80.9141 31.1562 81.2969 31.2891C81.6797 31.4219 82.168 31.5547 82.7617 31.6875C83.8008 31.9219 84.6562 32.2031 85.3281 32.5312C86 32.8594 86.5 33.2617 86.8281 33.7383C87.1562 34.2148 87.3203 34.793 87.3203 35.4727C87.3203 36.0273 87.2031 36.5352 86.9688 36.9961C86.7422 37.457 86.4102 37.8555 85.9727 38.1914C85.543 38.5195 85.0273 38.7773 84.4258 38.9648C83.832 39.1445 83.1641 39.2344 82.4219 39.2344C81.3047 39.2344 80.3594 39.0352 79.5859 38.6367C78.8125 38.2383 78.2266 37.7227 77.8281 37.0898C77.4297 36.457 77.2305 35.7891 77.2305 35.0859H79.4102C79.4414 35.6797 79.6133 36.1523 79.9258 36.5039C80.2383 36.8477 80.6211 37.0938 81.0742 37.2422C81.5273 37.3828 81.9766 37.4531 82.4219 37.4531C83.0156 37.4531 83.5117 37.375 83.9102 37.2188C84.3164 37.0625 84.625 36.8477 84.8359 36.5742C85.0469 36.3008 85.1523 35.9883 85.1523 35.6367ZM101.43 26.3203V27.9844H94.5742V26.3203H101.43ZM96.8945 23.2383H99.0625V35.8594C99.0625 36.2891 99.1289 36.6133 99.2617 36.832C99.3945 37.0508 99.5664 37.1953 99.7773 37.2656C99.9883 37.3359 100.215 37.3711 100.457 37.3711C100.637 37.3711 100.824 37.3555 101.02 37.3242C101.223 37.2852 101.375 37.2539 101.477 37.2305L101.488 39C101.316 39.0547 101.09 39.1055 100.809 39.1523C100.535 39.207 100.203 39.2344 99.8125 39.2344C99.2812 39.2344 98.793 39.1289 98.3477 38.918C97.9023 38.707 97.5469 38.3555 97.2812 37.8633C97.0234 37.3633 96.8945 36.6914 96.8945 35.8477V23.2383ZM103.164 32.8008V32.5312C103.164 31.6172 103.297 30.7695 103.562 29.9883C103.828 29.1992 104.211 28.5156 104.711 27.9375C105.211 27.3516 105.816 26.8984 106.527 26.5781C107.238 26.25 108.035 26.0859 108.918 26.0859C109.809 26.0859 110.609 26.25 111.32 26.5781C112.039 26.8984 112.648 27.3516 113.148 27.9375C113.656 28.5156 114.043 29.1992 114.309 29.9883C114.574 30.7695 114.707 31.6172 114.707 32.5312V32.8008C114.707 33.7148 114.574 34.5625 114.309 35.3438C114.043 36.125 113.656 36.8086 113.148 37.3945C112.648 37.9727 112.043 38.4258 111.332 38.7539C110.629 39.0742 109.832 39.2344 108.941 39.2344C108.051 39.2344 107.25 39.0742 106.539 38.7539C105.828 38.4258 105.219 37.9727 104.711 37.3945C104.211 36.8086 103.828 36.125 103.562 35.3438C103.297 34.5625 103.164 33.7148 103.164 32.8008ZM105.332 32.5312V32.8008C105.332 33.4336 105.406 34.0312 105.555 34.5938C105.703 35.1484 105.926 35.6406 106.223 36.0703C106.527 36.5 106.906 36.8398 107.359 37.0898C107.812 37.332 108.34 37.4531 108.941 37.4531C109.535 37.4531 110.055 37.332 110.5 37.0898C110.953 36.8398 111.328 36.5 111.625 36.0703C111.922 35.6406 112.145 35.1484 112.293 34.5938C112.449 34.0312 112.527 33.4336 112.527 32.8008V32.5312C112.527 31.9062 112.449 31.3164 112.293 30.7617C112.145 30.1992 111.918 29.7031 111.613 29.2734C111.316 28.8359 110.941 28.4922 110.488 28.2422C110.043 27.9922 109.52 27.8672 108.918 27.8672C108.324 27.8672 107.801 27.9922 107.348 28.2422C106.902 28.4922 106.527 28.8359 106.223 29.2734C105.926 29.7031 105.703 30.1992 105.555 30.7617C105.406 31.3164 105.332 31.9062 105.332 32.5312ZM125.547 28.3125V39H123.379V26.3203H125.488L125.547 28.3125ZM129.508 26.25L129.496 28.2656C129.316 28.2266 129.145 28.2031 128.98 28.1953C128.824 28.1797 128.645 28.1719 128.441 28.1719C127.941 28.1719 127.5 28.25 127.117 28.4062C126.734 28.5625 126.41 28.7812 126.145 29.0625C125.879 29.3438 125.668 29.6797 125.512 30.0703C125.363 30.4531 125.266 30.875 125.219 31.3359L124.609 31.6875C124.609 30.9219 124.684 30.2031 124.832 29.5312C124.988 28.8594 125.227 28.2656 125.547 27.75C125.867 27.2266 126.273 26.8203 126.766 26.5312C127.266 26.2344 127.859 26.0859 128.547 26.0859C128.703 26.0859 128.883 26.1055 129.086 26.1445C129.289 26.1758 129.43 26.2109 129.508 26.25ZM136.539 39.2344C135.656 39.2344 134.855 39.0859 134.137 38.7891C133.426 38.4844 132.812 38.0586 132.297 37.5117C131.789 36.9648 131.398 36.3164 131.125 35.5664C130.852 34.8164 130.715 33.9961 130.715 33.1055V32.6133C130.715 31.582 130.867 30.6641 131.172 29.8594C131.477 29.0469 131.891 28.3594 132.414 27.7969C132.938 27.2344 133.531 26.8086 134.195 26.5195C134.859 26.2305 135.547 26.0859 136.258 26.0859C137.164 26.0859 137.945 26.2422 138.602 26.5547C139.266 26.8672 139.809 27.3047 140.23 27.8672C140.652 28.4219 140.965 29.0781 141.168 29.8359C141.371 30.5859 141.473 31.4062 141.473 32.2969V33.2695H132.004V31.5H139.305V31.3359C139.273 30.7734 139.156 30.2266 138.953 29.6953C138.758 29.1641 138.445 28.7266 138.016 28.3828C137.586 28.0391 137 27.8672 136.258 27.8672C135.766 27.8672 135.312 27.9727 134.898 28.1836C134.484 28.3867 134.129 28.6914 133.832 29.0977C133.535 29.5039 133.305 30 133.141 30.5859C132.977 31.1719 132.895 31.8477 132.895 32.6133V33.1055C132.895 33.707 132.977 34.2734 133.141 34.8047C133.312 35.3281 133.559 35.7891 133.879 36.1875C134.207 36.5859 134.602 36.8984 135.062 37.125C135.531 37.3516 136.062 37.4648 136.656 37.4648C137.422 37.4648 138.07 37.3086 138.602 36.9961C139.133 36.6836 139.598 36.2656 139.996 35.7422L141.309 36.7852C141.035 37.1992 140.688 37.5938 140.266 37.9688C139.844 38.3438 139.324 38.6484 138.707 38.8828C138.098 39.1172 137.375 39.2344 136.539 39.2344ZM146.16 28.8398V39H143.98V26.3203H146.043L146.16 28.8398ZM145.715 32.1797L144.707 32.1445C144.715 31.2773 144.828 30.4766 145.047 29.7422C145.266 29 145.59 28.3555 146.02 27.8086C146.449 27.2617 146.984 26.8398 147.625 26.543C148.266 26.2383 149.008 26.0859 149.852 26.0859C150.445 26.0859 150.992 26.1719 151.492 26.3438C151.992 26.5078 152.426 26.7695 152.793 27.1289C153.16 27.4883 153.445 27.9492 153.648 28.5117C153.852 29.0742 153.953 29.7539 153.953 30.5508V39H151.785V30.6562C151.785 29.9922 151.672 29.4609 151.445 29.0625C151.227 28.6641 150.914 28.375 150.508 28.1953C150.102 28.0078 149.625 27.9141 149.078 27.9141C148.438 27.9141 147.902 28.0273 147.473 28.2539C147.043 28.4805 146.699 28.793 146.441 29.1914C146.184 29.5898 145.996 30.0469 145.879 30.5625C145.77 31.0703 145.715 31.6094 145.715 32.1797ZM153.93 30.9844L152.477 31.4297C152.484 30.7344 152.598 30.0664 152.816 29.4258C153.043 28.7852 153.367 28.2148 153.789 27.7148C154.219 27.2148 154.746 26.8203 155.371 26.5312C155.996 26.2344 156.711 26.0859 157.516 26.0859C158.195 26.0859 158.797 26.1758 159.32 26.3555C159.852 26.5352 160.297 26.8125 160.656 27.1875C161.023 27.5547 161.301 28.0273 161.488 28.6055C161.676 29.1836 161.77 29.8711 161.77 30.668V39H159.59V30.6445C159.59 29.9336 159.477 29.3828 159.25 28.9922C159.031 28.5938 158.719 28.3164 158.312 28.1602C157.914 27.9961 157.438 27.9141 156.883 27.9141C156.406 27.9141 155.984 27.9961 155.617 28.1602C155.25 28.3242 154.941 28.5508 154.691 28.8398C154.441 29.1211 154.25 29.4453 154.117 29.8125C153.992 30.1797 153.93 30.5703 153.93 30.9844ZM170.312 39.2344C169.43 39.2344 168.629 39.0859 167.91 38.7891C167.199 38.4844 166.586 38.0586 166.07 37.5117C165.562 36.9648 165.172 36.3164 164.898 35.5664C164.625 34.8164 164.488 33.9961 164.488 33.1055V32.6133C164.488 31.582 164.641 30.6641 164.945 29.8594C165.25 29.0469 165.664 28.3594 166.188 27.7969C166.711 27.2344 167.305 26.8086 167.969 26.5195C168.633 26.2305 169.32 26.0859 170.031 26.0859C170.938 26.0859 171.719 26.2422 172.375 26.5547C173.039 26.8672 173.582 27.3047 174.004 27.8672C174.426 28.4219 174.738 29.0781 174.941 29.8359C175.145 30.5859 175.246 31.4062 175.246 32.2969V33.2695H165.777V31.5H173.078V31.3359C173.047 30.7734 172.93 30.2266 172.727 29.6953C172.531 29.1641 172.219 28.7266 171.789 28.3828C171.359 28.0391 170.773 27.8672 170.031 27.8672C169.539 27.8672 169.086 27.9727 168.672 28.1836C168.258 28.3867 167.902 28.6914 167.605 29.0977C167.309 29.5039 167.078 30 166.914 30.5859C166.75 31.1719 166.668 31.8477 166.668 32.6133V33.1055C166.668 33.707 166.75 34.2734 166.914 34.8047C167.086 35.3281 167.332 35.7891 167.652 36.1875C167.98 36.5859 168.375 36.8984 168.836 37.125C169.305 37.3516 169.836 37.4648 170.43 37.4648C171.195 37.4648 171.844 37.3086 172.375 36.9961C172.906 36.6836 173.371 36.2656 173.77 35.7422L175.082 36.7852C174.809 37.1992 174.461 37.5938 174.039 37.9688C173.617 38.3438 173.098 38.6484 172.48 38.8828C171.871 39.1172 171.148 39.2344 170.312 39.2344ZM179.934 28.8398V39H177.754V26.3203H179.816L179.934 28.8398ZM179.488 32.1797L178.48 32.1445C178.488 31.2773 178.602 30.4766 178.82 29.7422C179.039 29 179.363 28.3555 179.793 27.8086C180.223 27.2617 180.758 26.8398 181.398 26.543C182.039 26.2383 182.781 26.0859 183.625 26.0859C184.219 26.0859 184.766 26.1719 185.266 26.3438C185.766 26.5078 186.199 26.7695 186.566 27.1289C186.934 27.4883 187.219 27.9492 187.422 28.5117C187.625 29.0742 187.727 29.7539 187.727 30.5508V39H185.559V30.6562C185.559 29.9922 185.445 29.4609 185.219 29.0625C185 28.6641 184.688 28.375 184.281 28.1953C183.875 28.0078 183.398 27.9141 182.852 27.9141C182.211 27.9141 181.676 28.0273 181.246 28.2539C180.816 28.4805 180.473 28.793 180.215 29.1914C179.957 29.5898 179.77 30.0469 179.652 30.5625C179.543 31.0703 179.488 31.6094 179.488 32.1797ZM187.703 30.9844L186.25 31.4297C186.258 30.7344 186.371 30.0664 186.59 29.4258C186.816 28.7852 187.141 28.2148 187.562 27.7148C187.992 27.2148 188.52 26.8203 189.145 26.5312C189.77 26.2344 190.484 26.0859 191.289 26.0859C191.969 26.0859 192.57 26.1758 193.094 26.3555C193.625 26.5352 194.07 26.8125 194.43 27.1875C194.797 27.5547 195.074 28.0273 195.262 28.6055C195.449 29.1836 195.543 29.8711 195.543 30.668V39H193.363V30.6445C193.363 29.9336 193.25 29.3828 193.023 28.9922C192.805 28.5938 192.492 28.3164 192.086 28.1602C191.688 27.9961 191.211 27.9141 190.656 27.9141C190.18 27.9141 189.758 27.9961 189.391 28.1602C189.023 28.3242 188.715 28.5508 188.465 28.8398C188.215 29.1211 188.023 29.4453 187.891 29.8125C187.766 30.1797 187.703 30.5703 187.703 30.9844ZM198.812 21H200.992V36.5391L200.805 39H198.812V21ZM209.559 32.5547V32.8008C209.559 33.7227 209.449 34.5781 209.23 35.3672C209.012 36.1484 208.691 36.8281 208.27 37.4062C207.848 37.9844 207.332 38.4336 206.723 38.7539C206.113 39.0742 205.414 39.2344 204.625 39.2344C203.82 39.2344 203.113 39.0977 202.504 38.8242C201.902 38.543 201.395 38.1406 200.98 37.6172C200.566 37.0938 200.234 36.4609 199.984 35.7188C199.742 34.9766 199.574 34.1406 199.48 33.2109V32.1328C199.574 31.1953 199.742 30.3555 199.984 29.6133C200.234 28.8711 200.566 28.2383 200.98 27.7148C201.395 27.1836 201.902 26.7812 202.504 26.5078C203.105 26.2266 203.805 26.0859 204.602 26.0859C205.398 26.0859 206.105 26.2422 206.723 26.5547C207.34 26.8594 207.855 27.2969 208.27 27.8672C208.691 28.4375 209.012 29.1211 209.23 29.918C209.449 30.707 209.559 31.5859 209.559 32.5547ZM207.379 32.8008V32.5547C207.379 31.9219 207.32 31.3281 207.203 30.7734C207.086 30.2109 206.898 29.7188 206.641 29.2969C206.383 28.8672 206.043 28.5312 205.621 28.2891C205.199 28.0391 204.68 27.9141 204.062 27.9141C203.516 27.9141 203.039 28.0078 202.633 28.1953C202.234 28.3828 201.895 28.6367 201.613 28.957C201.332 29.2695 201.102 29.6289 200.922 30.0352C200.75 30.4336 200.621 30.8477 200.535 31.2773V34.1016C200.66 34.6484 200.863 35.1758 201.145 35.6836C201.434 36.1836 201.816 36.5938 202.293 36.9141C202.777 37.2344 203.375 37.3945 204.086 37.3945C204.672 37.3945 205.172 37.2773 205.586 37.043C206.008 36.8008 206.348 36.4688 206.605 36.0469C206.871 35.625 207.066 35.1367 207.191 34.582C207.316 34.0273 207.379 33.4336 207.379 32.8008ZM217.562 39.2344C216.68 39.2344 215.879 39.0859 215.16 38.7891C214.449 38.4844 213.836 38.0586 213.32 37.5117C212.812 36.9648 212.422 36.3164 212.148 35.5664C211.875 34.8164 211.738 33.9961 211.738 33.1055V32.6133C211.738 31.582 211.891 30.6641 212.195 29.8594C212.5 29.0469 212.914 28.3594 213.438 27.7969C213.961 27.2344 214.555 26.8086 215.219 26.5195C215.883 26.2305 216.57 26.0859 217.281 26.0859C218.188 26.0859 218.969 26.2422 219.625 26.5547C220.289 26.8672 220.832 27.3047 221.254 27.8672C221.676 28.4219 221.988 29.0781 222.191 29.8359C222.395 30.5859 222.496 31.4062 222.496 32.2969V33.2695H213.027V31.5H220.328V31.3359C220.297 30.7734 220.18 30.2266 219.977 29.6953C219.781 29.1641 219.469 28.7266 219.039 28.3828C218.609 28.0391 218.023 27.8672 217.281 27.8672C216.789 27.8672 216.336 27.9727 215.922 28.1836C215.508 28.3867 215.152 28.6914 214.855 29.0977C214.559 29.5039 214.328 30 214.164 30.5859C214 31.1719 213.918 31.8477 213.918 32.6133V33.1055C213.918 33.707 214 34.2734 214.164 34.8047C214.336 35.3281 214.582 35.7891 214.902 36.1875C215.23 36.5859 215.625 36.8984 216.086 37.125C216.555 37.3516 217.086 37.4648 217.68 37.4648C218.445 37.4648 219.094 37.3086 219.625 36.9961C220.156 36.6836 220.621 36.2656 221.02 35.7422L222.332 36.7852C222.059 37.1992 221.711 37.5938 221.289 37.9688C220.867 38.3438 220.348 38.6484 219.73 38.8828C219.121 39.1172 218.398 39.2344 217.562 39.2344ZM227.195 28.3125V39H225.027V26.3203H227.137L227.195 28.3125ZM231.156 26.25L231.145 28.2656C230.965 28.2266 230.793 28.2031 230.629 28.1953C230.473 28.1797 230.293 28.1719 230.09 28.1719C229.59 28.1719 229.148 28.25 228.766 28.4062C228.383 28.5625 228.059 28.7812 227.793 29.0625C227.527 29.3438 227.316 29.6797 227.16 30.0703C227.012 30.4531 226.914 30.875 226.867 31.3359L226.258 31.6875C226.258 30.9219 226.332 30.2031 226.48 29.5312C226.637 28.8594 226.875 28.2656 227.195 27.75C227.516 27.2266 227.922 26.8203 228.414 26.5312C228.914 26.2344 229.508 26.0859 230.195 26.0859C230.352 26.0859 230.531 26.1055 230.734 26.1445C230.938 26.1758 231.078 26.2109 231.156 26.25ZM231.742 37.8516C231.742 37.4844 231.855 37.1758 232.082 36.9258C232.316 36.668 232.652 36.5391 233.09 36.5391C233.527 36.5391 233.859 36.668 234.086 36.9258C234.32 37.1758 234.438 37.4844 234.438 37.8516C234.438 38.2109 234.32 38.5156 234.086 38.7656C233.859 39.0156 233.527 39.1406 233.09 39.1406C232.652 39.1406 232.316 39.0156 232.082 38.7656C231.855 38.5156 231.742 38.2109 231.742 37.8516ZM238.07 37.8516C238.07 37.4844 238.184 37.1758 238.41 36.9258C238.645 36.668 238.98 36.5391 239.418 36.5391C239.855 36.5391 240.188 36.668 240.414 36.9258C240.648 37.1758 240.766 37.4844 240.766 37.8516C240.766 38.2109 240.648 38.5156 240.414 38.7656C240.188 39.0156 239.855 39.1406 239.418 39.1406C238.98 39.1406 238.645 39.0156 238.41 38.7656C238.184 38.5156 238.07 38.2109 238.07 37.8516ZM244.398 37.8516C244.398 37.4844 244.512 37.1758 244.738 36.9258C244.973 36.668 245.309 36.5391 245.746 36.5391C246.184 36.5391 246.516 36.668 246.742 36.9258C246.977 37.1758 247.094 37.4844 247.094 37.8516C247.094 38.2109 246.977 38.5156 246.742 38.7656C246.516 39.0156 246.184 39.1406 245.746 39.1406C245.309 39.1406 244.973 39.0156 244.738 38.7656C244.512 38.5156 244.398 38.2109 244.398 37.8516Z" fill="#BDBDBD"/>
<rect x="1" y="1" width="318" height="118" rx="15" stroke="#4F4F4F" stroke-width="2"/>
<rect y="128" width="319" height="45" rx="16" fill="#4F4F4F"/>
<path d="M135.336 153.34H138.84C138.77 154.488 138.453 155.508 137.891 156.398C137.336 157.289 136.559 157.984 135.559 158.484C134.566 158.984 133.371 159.234 131.973 159.234C130.879 159.234 129.898 159.047 129.031 158.672C128.164 158.289 127.422 157.742 126.805 157.031C126.195 156.32 125.73 155.461 125.41 154.453C125.09 153.445 124.93 152.316 124.93 151.066V149.883C124.93 148.633 125.094 147.504 125.422 146.496C125.758 145.48 126.234 144.617 126.852 143.906C127.477 143.195 128.223 142.648 129.09 142.266C129.957 141.883 130.926 141.691 131.996 141.691C133.418 141.691 134.617 141.949 135.594 142.465C136.578 142.98 137.34 143.691 137.879 144.598C138.426 145.504 138.754 146.535 138.863 147.691H135.348C135.309 147.004 135.172 146.422 134.938 145.945C134.703 145.461 134.348 145.098 133.871 144.855C133.402 144.605 132.777 144.48 131.996 144.48C131.41 144.48 130.898 144.59 130.461 144.809C130.023 145.027 129.656 145.359 129.359 145.805C129.062 146.25 128.84 146.812 128.691 147.492C128.551 148.164 128.48 148.953 128.48 149.859V151.066C128.48 151.949 128.547 152.727 128.68 153.398C128.812 154.062 129.016 154.625 129.289 155.086C129.57 155.539 129.93 155.883 130.367 156.117C130.812 156.344 131.348 156.457 131.973 156.457C132.707 156.457 133.312 156.34 133.789 156.105C134.266 155.871 134.629 155.523 134.879 155.062C135.137 154.602 135.289 154.027 135.336 153.34ZM144.312 149.086V159H140.938V146.32H144.113L144.312 149.086ZM148.133 146.238L148.074 149.367C147.91 149.344 147.711 149.324 147.477 149.309C147.25 149.285 147.043 149.273 146.855 149.273C146.379 149.273 145.965 149.336 145.613 149.461C145.27 149.578 144.98 149.754 144.746 149.988C144.52 150.223 144.348 150.508 144.23 150.844C144.121 151.18 144.059 151.562 144.043 151.992L143.363 151.781C143.363 150.961 143.445 150.207 143.609 149.52C143.773 148.824 144.012 148.219 144.324 147.703C144.645 147.188 145.035 146.789 145.496 146.508C145.957 146.227 146.484 146.086 147.078 146.086C147.266 146.086 147.457 146.102 147.652 146.133C147.848 146.156 148.008 146.191 148.133 146.238ZM155.328 159.234C154.344 159.234 153.461 159.078 152.68 158.766C151.898 158.445 151.234 158.004 150.688 157.441C150.148 156.879 149.734 156.227 149.445 155.484C149.156 154.734 149.012 153.938 149.012 153.094V152.625C149.012 151.664 149.148 150.785 149.422 149.988C149.695 149.191 150.086 148.5 150.594 147.914C151.109 147.328 151.734 146.879 152.469 146.566C153.203 146.246 154.031 146.086 154.953 146.086C155.852 146.086 156.648 146.234 157.344 146.531C158.039 146.828 158.621 147.25 159.09 147.797C159.566 148.344 159.926 149 160.168 149.766C160.41 150.523 160.531 151.367 160.531 152.297V153.703H150.453V151.453H157.215V151.195C157.215 150.727 157.129 150.309 156.957 149.941C156.793 149.566 156.543 149.27 156.207 149.051C155.871 148.832 155.441 148.723 154.918 148.723C154.473 148.723 154.09 148.82 153.77 149.016C153.449 149.211 153.188 149.484 152.984 149.836C152.789 150.188 152.641 150.602 152.539 151.078C152.445 151.547 152.398 152.062 152.398 152.625V153.094C152.398 153.602 152.469 154.07 152.609 154.5C152.758 154.93 152.965 155.301 153.23 155.613C153.504 155.926 153.832 156.168 154.215 156.34C154.605 156.512 155.047 156.598 155.539 156.598C156.148 156.598 156.715 156.48 157.238 156.246C157.77 156.004 158.227 155.641 158.609 155.156L160.25 156.938C159.984 157.32 159.621 157.688 159.16 158.039C158.707 158.391 158.16 158.68 157.52 158.906C156.879 159.125 156.148 159.234 155.328 159.234ZM169.297 156.141V150.492C169.297 150.086 169.23 149.738 169.098 149.449C168.965 149.152 168.758 148.922 168.477 148.758C168.203 148.594 167.848 148.512 167.41 148.512C167.035 148.512 166.711 148.578 166.438 148.711C166.164 148.836 165.953 149.02 165.805 149.262C165.656 149.496 165.582 149.773 165.582 150.094H162.207C162.207 149.555 162.332 149.043 162.582 148.559C162.832 148.074 163.195 147.648 163.672 147.281C164.148 146.906 164.715 146.613 165.371 146.402C166.035 146.191 166.777 146.086 167.598 146.086C168.582 146.086 169.457 146.25 170.223 146.578C170.988 146.906 171.59 147.398 172.027 148.055C172.473 148.711 172.695 149.531 172.695 150.516V155.941C172.695 156.637 172.738 157.207 172.824 157.652C172.91 158.09 173.035 158.473 173.199 158.801V159H169.789C169.625 158.656 169.5 158.227 169.414 157.711C169.336 157.188 169.297 156.664 169.297 156.141ZM169.742 151.277L169.766 153.188H167.879C167.434 153.188 167.047 153.238 166.719 153.34C166.391 153.441 166.121 153.586 165.91 153.773C165.699 153.953 165.543 154.164 165.441 154.406C165.348 154.648 165.301 154.914 165.301 155.203C165.301 155.492 165.367 155.754 165.5 155.988C165.633 156.215 165.824 156.395 166.074 156.527C166.324 156.652 166.617 156.715 166.953 156.715C167.461 156.715 167.902 156.613 168.277 156.41C168.652 156.207 168.941 155.957 169.145 155.66C169.355 155.363 169.465 155.082 169.473 154.816L170.363 156.246C170.238 156.566 170.066 156.898 169.848 157.242C169.637 157.586 169.367 157.91 169.039 158.215C168.711 158.512 168.316 158.758 167.855 158.953C167.395 159.141 166.848 159.234 166.215 159.234C165.41 159.234 164.68 159.074 164.023 158.754C163.375 158.426 162.859 157.977 162.477 157.406C162.102 156.828 161.914 156.172 161.914 155.438C161.914 154.773 162.039 154.184 162.289 153.668C162.539 153.152 162.906 152.719 163.391 152.367C163.883 152.008 164.496 151.738 165.23 151.559C165.965 151.371 166.816 151.277 167.785 151.277H169.742ZM181.508 146.32V148.711H174.125V146.32H181.508ZM175.953 143.191H179.328V155.18C179.328 155.547 179.375 155.828 179.469 156.023C179.57 156.219 179.719 156.355 179.914 156.434C180.109 156.504 180.355 156.539 180.652 156.539C180.863 156.539 181.051 156.531 181.215 156.516C181.387 156.492 181.531 156.469 181.648 156.445L181.66 158.93C181.371 159.023 181.059 159.098 180.723 159.152C180.387 159.207 180.016 159.234 179.609 159.234C178.867 159.234 178.219 159.113 177.664 158.871C177.117 158.621 176.695 158.223 176.398 157.676C176.102 157.129 175.953 156.41 175.953 155.52V143.191ZM189.266 159.234C188.281 159.234 187.398 159.078 186.617 158.766C185.836 158.445 185.172 158.004 184.625 157.441C184.086 156.879 183.672 156.227 183.383 155.484C183.094 154.734 182.949 153.938 182.949 153.094V152.625C182.949 151.664 183.086 150.785 183.359 149.988C183.633 149.191 184.023 148.5 184.531 147.914C185.047 147.328 185.672 146.879 186.406 146.566C187.141 146.246 187.969 146.086 188.891 146.086C189.789 146.086 190.586 146.234 191.281 146.531C191.977 146.828 192.559 147.25 193.027 147.797C193.504 148.344 193.863 149 194.105 149.766C194.348 150.523 194.469 151.367 194.469 152.297V153.703H184.391V151.453H191.152V151.195C191.152 150.727 191.066 150.309 190.895 149.941C190.73 149.566 190.48 149.27 190.145 149.051C189.809 148.832 189.379 148.723 188.855 148.723C188.41 148.723 188.027 148.82 187.707 149.016C187.387 149.211 187.125 149.484 186.922 149.836C186.727 150.188 186.578 150.602 186.477 151.078C186.383 151.547 186.336 152.062 186.336 152.625V153.094C186.336 153.602 186.406 154.07 186.547 154.5C186.695 154.93 186.902 155.301 187.168 155.613C187.441 155.926 187.77 156.168 188.152 156.34C188.543 156.512 188.984 156.598 189.477 156.598C190.086 156.598 190.652 156.48 191.176 156.246C191.707 156.004 192.164 155.641 192.547 155.156L194.188 156.938C193.922 157.32 193.559 157.688 193.098 158.039C192.645 158.391 192.098 158.68 191.457 158.906C190.816 159.125 190.086 159.234 189.266 159.234Z" fill="white"/>
</svg>
